<?xml version="1.0" encoding="iso-8859-1"?>
<!-- Generator: Adobe Illustrator 16.0.0, SVG Export Plug-In . SVG Version: 6.00 Build 0)  -->
<!DOCTYPE svg PUBLIC "-//W3C//DTD SVG 1.1//EN" "http://www.w3.org/Graphics/SVG/1.1/DTD/svg11.dtd">
<svg version="1.1" id="Capa_1" xmlns="http://www.w3.org/2000/svg" xmlns:xlink="http://www.w3.org/1999/xlink" x="0px" y="0px"
	 width="476.196px" height="476.196px" viewBox="0 0 476.196 476.196" style="enable-background:new 0 0 476.196 476.196;"
	 xml:space="preserve">
<g>
	<g id="Layer_3_47_">
		<g>
			<path d="M415.487,157.594c-35.538-40.036-81.213-64.287-133.292-69.075c-52.649-4.839-102.308,15.439-143.604,58.648
				c-30.679,32.101-45.862,65.276-46.493,66.673c-0.035,0.077-0.059,0.155-0.091,0.232c-21.55,0.063-35.859,0.101-38.797,0.101
				c-62.268,0-79.995,119.352,2.328,119.352c5.515,0-18.646,0.389,7.383,0.389c0.957-34.177,29.037-61.689,63.439-61.689
				c34.405,0,62.485,27.513,63.443,61.689c34.736,0,71.66,0,106.863,0c0.958-34.376,29.2-62.05,63.802-62.05
				c34.544,0,62.747,27.577,63.798,61.869C510.494,333.732,476.415,226.233,415.487,157.594z M116.328,214
				c6.282-11.425,19.101-32.318,38.346-52.341c33.948-35.32,72.311-52.828,114.179-52.191v104.06
				C214.227,213.7,157.826,213.875,116.328,214z M263.565,255.224h-22.853c-2.969,0-5.376-2.407-5.376-5.377
				c0-2.971,2.407-5.377,5.376-5.377h22.853c2.97,0,5.377,2.406,5.377,5.377C268.942,252.816,266.535,255.224,263.565,255.224z
				 M284.904,213.477v-102.92c44.79,5.214,83.037,25.599,113.738,60.644c13.893,15.856,23.146,31.434,28.511,41.823
				C397.721,213.119,343.309,213.292,284.904,213.477z"/>
			<path d="M126.361,283.042c-29.039,0-52.667,23.626-52.667,52.668s23.628,52.669,52.667,52.669
				c29.041,0,52.669-23.627,52.669-52.669S155.402,283.042,126.361,283.042z M126.361,363.362c-15.246,0-27.649-12.404-27.649-27.65
				c0-15.247,12.403-27.651,27.649-27.651c15.248,0,27.651,12.404,27.651,27.651C154.013,350.958,141.608,363.362,126.361,363.362z"
				/>
			<path d="M360.47,283.042c-29.041,0-52.669,23.626-52.669,52.668s23.628,52.669,52.669,52.669
				c29.043,0,52.669-23.627,52.669-52.669S389.513,283.042,360.47,283.042z M360.47,363.362c-15.245,0-27.65-12.404-27.65-27.65
				c0-15.247,12.405-27.651,27.65-27.651c15.248,0,27.651,12.404,27.651,27.651C388.121,350.958,375.717,363.362,360.47,363.362z"/>
		</g>
	</g>
</g>
<g>
</g>
<g>
</g>
<g>
</g>
<g>
</g>
<g>
</g>
<g>
</g>
<g>
</g>
<g>
</g>
<g>
</g>
<g>
</g>
<g>
</g>
<g>
</g>
<g>
</g>
<g>
</g>
<g>
</g>
</svg>
